<svg xmlns="http://www.w3.org/2000/svg" version="1.1" xmlns:xlink="http://www.w3.org/1999/xlink" xmlns:svgjs="http://svgjs.dev/svgjs" viewBox="0 0 800 400"><path d="M87.02592468261719,280.2395324707031C96.54688212076823,282.56687642415363,122.93410558064778,292.77844879150393,140.9181365966797,293.4131774902344C158.9021676127116,294.0479061889648,173.37721583048503,291.8722575378418,188.82232666015625,283.83233642578125C204.26743748982747,275.7924153137207,210.78241099039712,259.3293389892578,228.34329223632812,247.90419006347656C245.90417348225913,236.4790411376953,270.8742416381836,222.54691263834636,288.2235412597656,219.16168212890625C305.57284088134764,215.77645161946614,315.12172607421877,226.20358774820963,326.546875,228.7425079345703C337.97202392578123,231.281428120931,340.1995838419596,234.3792360941569,352.8941955566406,233.53292846679688C365.5888072713216,232.68662083943684,384.8622510782878,234.31935246785483,398.4031677246094,223.95208740234375C411.94408437093097,213.58482233683267,417.4810159301758,193.68063331604003,429.5408935546875,174.8502960205078C441.6007711791992,156.0199587249756,456.299358215332,131.329344329834,466.6666259765625,117.36527252197266C477.033893737793,103.40120071411133,484.4151528930664,99.61676445007325,488.2235412597656,95.80838012695312" fill="none" stroke-width="35" stroke="url(&quot;#SvgjsLinearGradient1004&quot;)" stroke-linecap="round" stroke-dasharray="0 58" transform="matrix(0.9950062500000001,-6.120104423246176e-17,6.120104423246176e-17,0.9950062500000001,113.81158544778822,6.309574603748331)"></path><defs><linearGradient id="SvgjsLinearGradient1004" gradientTransform="rotate(37, 0.5, 0.5)"><stop stop-color="hsl(1.4, 100%, 67%)" offset="0"></stop><stop stop-color="hsl(167, 52%, 78%)" offset="1"></stop></linearGradient></defs></svg>